<svg data-v-423bf9ae="" xmlns="http://www.w3.org/2000/svg" viewBox="0 0 312.7766357356303 60" class="font"><!----><!----><defs data-v-423bf9ae=""><linearGradient data-v-423bf9ae="" gradientTransform="rotate(25)" id="d12f7e49-49b1-4fea-b1b6-fd07d61b1c61" x1="0%" y1="0%" x2="100%" y2="0%"><stop data-v-423bf9ae="" offset="0%" style="stop-color: rgb(233, 13, 218); stop-opacity: 1;"></stop><stop data-v-423bf9ae="" offset="100%" style="stop-color: rgb(21, 207, 241); stop-opacity: 1;"></stop></linearGradient></defs><g data-v-423bf9ae="" id="717203cf-b0d1-4ac2-957f-a1e7d8e2c10e" fill="url(#d12f7e49-49b1-4fea-b1b6-fd07d61b1c61)" transform="matrix(4.175365377719738,0,0,4.175365377719738,-4.008354542572306,-11.022965750449103)"><path d="M3.31 13.52L3.31 3.68L0.96 3.68L0.96 13.52ZM7.04 5.48C7.82 5.48 8.52 4.84 8.52 4.06C8.52 3.27 7.82 2.64 7.04 2.64C6.25 2.64 5.58 3.27 5.58 4.06C5.58 4.84 6.25 5.48 7.04 5.48ZM8.29 6.55L4.80 6.55L4.80 8.46L5.93 8.46L5.93 13.52L8.29 13.52ZM12.73 6.34C11.03 6.34 9.58 7.67 9.58 10.02C9.58 12.55 11.03 13.73 12.59 13.73C13.59 13.73 14.33 13.13 14.67 12.36L14.67 13.33C14.67 14.14 13.84 14.89 12.70 14.89C11.57 14.89 10.84 14.56 9.98 14.19L9.98 16.27C10.91 16.78 11.76 17.01 12.92 17.01C15.07 17.01 17.02 15.53 17.02 13.32L17.02 6.55L14.67 6.55L14.67 7.19C14.22 6.70 13.45 6.34 12.73 6.34ZM13.22 8.64C13.74 8.64 14.26 8.89 14.67 9.21L14.67 9.88C14.67 10.90 13.88 11.35 13.29 11.35C12.54 11.35 12.04 10.77 12.04 10.02C12.04 9.28 12.54 8.64 13.22 8.64ZM23.26 6.34C22.33 6.34 21.72 6.85 21.29 7.45L21.29 3.68L18.94 3.68L18.94 13.52L21.29 13.52L21.29 9.31C21.53 8.94 21.88 8.64 22.38 8.64C22.86 8.64 23.31 8.89 23.31 9.58L23.32 13.52L25.68 13.52L25.68 9.21C25.68 7.33 24.68 6.34 23.26 6.34ZM30.64 6.55L30.64 4.50L29.38 4.50C28.97 5.96 28 6.73 27.11 6.96L27.11 8.39L28.29 8.39L28.29 11.21C28.29 12.80 29.41 13.73 30.71 13.73C31.61 13.73 32.25 13.37 32.55 12.97L32.55 11.14C32.21 11.35 31.88 11.44 31.45 11.44C30.94 11.44 30.64 11.02 30.64 10.35L30.64 8.39L32.47 8.39L32.47 6.55ZM40.66 6.34C39.01 6.34 37.75 7.25 37.75 8.68C37.75 9.65 38.20 10.32 39.22 10.64L39.92 10.86C40.47 11.03 40.77 11.13 40.77 11.39C40.77 11.72 40.52 11.83 40.00 11.83C39.35 11.83 38.43 11.53 37.78 11.12L37.78 12.95C38.40 13.38 39.33 13.73 40.37 13.73C41.86 13.73 43.23 12.77 43.23 11.40C43.23 10.40 42.64 9.76 41.41 9.45L40.99 9.34C40.40 9.19 40.25 9.11 40.25 8.85C40.25 8.48 40.65 8.31 41.08 8.31C41.77 8.31 42.38 8.64 42.86 8.93L42.86 7.08C42.38 6.63 41.56 6.34 40.66 6.34ZM47.58 6.55L47.58 4.50L46.32 4.50C45.91 5.96 44.94 6.73 44.05 6.96L44.05 8.39L45.23 8.39L45.23 11.21C45.23 12.80 46.35 13.73 47.65 13.73C48.55 13.73 49.19 13.37 49.49 12.97L49.49 11.14C49.15 11.35 48.82 11.44 48.38 11.44C47.88 11.44 47.58 11.02 47.58 10.35L47.58 8.39L49.41 8.39L49.41 6.55ZM57.67 6.55L55.32 6.55L55.30 10.10C55.30 11.06 55.03 11.47 54.33 11.47C53.63 11.47 53.36 11.06 53.36 10.10L53.35 6.55L51.00 6.55L51.00 10.73C51.00 12.62 52.39 13.73 54.33 13.73C56.27 13.73 57.67 12.62 57.67 10.73ZM66.47 13.52L66.47 3.68L64.12 3.68L64.12 7.19C63.67 6.70 62.90 6.34 62.18 6.34C60.48 6.34 59.04 7.67 59.04 10.02C59.04 12.55 60.48 13.73 62.04 13.73C63.04 13.73 63.78 13.13 64.12 12.36L64.12 13.52ZM62.67 8.64C63.19 8.64 63.71 8.89 64.12 9.21L64.12 9.88C64.12 10.90 63.33 11.35 62.74 11.35C61.99 11.35 61.50 10.77 61.50 10.02C61.50 9.28 61.99 8.64 62.67 8.64ZM75.87 6.55L73.24 6.55L71.75 10.25L70.21 6.55L67.50 6.55L70.44 12.92L68.24 16.80L70.86 16.80Z"></path></g><!----><!----></svg>